<svg xmlns="http://www.w3.org/2000/svg" viewBox="0 0 41 41" fill="none" role="img" aria-label="North Star Communications mark">
  <path d="M20.4927 41L17.9311 33.3152C17.1376 30.9282 15.7982 28.7591 14.0195 26.9804C12.2408 25.2017 10.0718 23.8624 7.68476 23.0689L0 20.4927L7.68476 17.9311C10.0718 17.1376 12.2408 15.7982 14.0195 14.0195C15.7982 12.2408 17.1376 10.0718 17.9311 7.68475L20.4927 0L23.0543 7.6994C23.8585 10.0723 25.2025 12.2262 26.9805 13.9915C28.7585 15.7568 30.922 17.0854 33.3006 17.8725L41 20.4341L33.3006 23.0103C30.9136 23.8039 28.7445 25.1432 26.9658 26.9219C25.1871 28.7006 23.8478 30.8697 23.0543 33.2567L20.4927 41ZM9.28026 20.5073C11.8426 21.4693 14.1692 22.9691 16.1032 24.9057C18.0373 26.8423 19.5341 29.1707 20.4927 31.7344C21.4521 29.1688 22.9508 26.839 24.8876 24.9022C26.8244 22.9654 29.1542 21.4667 31.7197 20.5073C29.1561 19.5487 26.8277 18.0519 24.891 16.1179C22.9544 14.1838 21.4547 11.8573 20.4927 9.2949C19.5452 11.8682 18.0527 14.2064 16.1174 16.1492C14.1822 18.0921 11.8499 19.5937 9.28026 20.5512V20.5073Z" fill="#b45309"/>
</svg>
